<svg xmlns="http://www.w3.org/2000/svg" xmlns:xlink="http://www.w3.org/1999/xlink" version="1.1" style="enable-background:new 0 0 1212.1 661.3;" xml:space="preserve" width="981.7058850258691" height="426.17647223819097"><rect id="backgroundrect" width="100%" height="100%" x="0" y="0" fill="none" stroke="none"/>
<style type="text/css">
	.st0{fill:#FFFFFF;}
	.st1{fill:none;}
	.st2{fill:#FFDE14;}
	.st3{fill:#FFE012;}
</style>


<g class="currentLayer" style=""><title>Layer 1</title><g id="svg_1" class="">
	<path class="st2" d="M484.4235311508179,10.023532104492176 c-37.7,0 -71,19.3 -90.5,48.5 c-19.5,-29.2 -52.8,-48.5 -90.5,-48.5 c-37.7,0 -71,19.3 -90.5,48.5 c-19.5,-29.2 -52.8,-48.5 -90.5,-48.5 c-60,0 -108.8,48.8 -108.8,108.8 h36.6 c0,-39.8 32.4,-72.2 72.2,-72.2 s72.2,32.4 72.2,72.2 h36.6 c0,-39.8 32.4,-72.2 72.2,-72.2 s72.2,32.4 72.2,72.2 h36.6 c0,-39.8 32.4,-72.2 72.2,-72.2 c45,0 70.3,32.4 70.3,72.2 h38.5 C593.2235311508178,58.82353210449219 544.4235311508179,10.023532104492176 484.4235311508179,10.023532104492176 z" id="svg_2"/>
	<path d="M785.6235311508178,251.22353210449216 l-36.3,-1.1 l-0.30000000000000016,2.8 c-1.2,9.5 -1,21.7 -0.9,34.7 c0.30000000000000016,31.1 0.6000000000000003,69.9 -17.4,86.8 c-7.4,6.9 -17.3,9.8 -30.4,8.8 l-0.2,0 l-0.2,0 c-12.9,0.30000000000000016 -22.5,-3.1 -29.5,-10.4 c-17.2,-18 -14.4,-57.2 -12.2,-88.7 c0.9,-12.7 1.7000000000000002,-24.6 1.2,-33.9 l-0.2,-2.8 l-36.3,-1.1 l-2.7,85.7 c-2.8,30.8 8.8,56.4 32.8,71.9 c13.3,8.6 29.5,13.3 45.8,13.8 c16.3,0.5 32.8,-3.1 46.7,-10.9 c24.9,-14 38.1,-38.7 37.3,-69.6 L785.6235311508178,251.22353210449216 z" id="svg_3"/>
	<polygon points="877.823561668396,329.0235595703125 968.0234518051147,243.72352600097656 918.9235372543335,243.72352600097656 846.2235860824585,314.7235412597656 846.2235860824585,166.9235382080078 809.6235494613647,166.9235382080078 809.6235494613647,413.22357177734375 846.2235860824585,413.22357177734375 846.2235860824585,343.62353515625 917.023512840271,413.22357177734375 966.7235250473022,413.22357177734375 " id="svg_4"/>
	<path d="M129.22353115081788,247.9235321044922 c-31.2,-9.4 -61.7,-0.8 -80.3,22 V166.9235321044922 h-36.6 v162.7 c-0.9,32.7 12.8,59.1 38.7,74.4 c14.5,8.6 31.6,12.8 48.7,12.8 c17.4,0 34.8,-4.4 49.7,-13.2 c26.1,-15.4 40,-41.6 39.1,-73.6 C190.22353115081785,283.1235321044922 157.62353115081788,256.5235321044922 129.22353115081788,247.9235321044922 zM101.92353115081787,384.72353210449216 c-29.2,0 -52.9,-23.7 -52.9,-52.9 s23.7,-52.9 52.9,-52.9 s52.9,23.7 52.9,52.9 S131.12353115081788,384.72353210449216 101.92353115081787,384.72353210449216 z" id="svg_5"/>
	<path d="M593.1235311508178,329.6235321044922 V166.9235321044922 h-36.6 v103.1 c-18.6,-22.8 -49,-31.4 -80.3,-22 c-28.4,8.6 -61,35.2 -59.3,82 c-0.9,32.1 13,58.2 39.1,73.6 c14.9,8.8 32.3,13.2 49.7,13.2 c17.1,0 34.2,-4.3 48.7,-12.8 C580.4235311508179,388.72353210449216 594.1235311508178,362.22353210449216 593.1235311508178,329.6235321044922 zM503.6235311508178,383.72353210449216 c-29.2,0 -52.9,-23.7 -52.9,-52.9 s23.7,-52.9 52.9,-52.9 c29.2,0 52.9,23.7 52.9,52.9 S532.9235311508179,383.72353210449216 503.6235311508178,383.72353210449216 z" id="svg_6"/>
	<path d="M391.0235311508179,381.3235321044922 l0,-49 c1,-32.6 -12.7,-59 -38.6,-74.3 c-29.2,-17.3 -68.8,-17.2 -98.3,0.2 c-26.2,15.4 -40.1,41.7 -39.3,73.9 c-1.8,46.4 31.1,72.1 64.6,80 c6.7,1.6 13.3,2.4 19.7,2.4 c23.9,0 44.8,-7.7 57.7,-27.1 v0 c0,0 -0.1,1 0,2.5 v0 c0.30000000000000016,5.8 2.6,20.1 18.6,22.9 c1.8,0.30000000000000016 3.7,0.5 5.8,0.5 h26.3 v-32.1 H391.0235311508179 zM302.82353115081787,383.72353210449216 c-29.2,0 -52.9,-23.7 -52.9,-52.9 S273.52353115081786,277.8235321044922 302.82353115081787,277.8235321044922 c29.2,0 52.9,23.7 52.9,52.9 S332.02353115081786,383.72353210449216 302.82353115081787,383.72353210449216 z" id="svg_7"/>
</g></g></svg>